<?xml version="1.0" encoding="UTF-8" standalone="no"?>
<!DOCTYPE svg PUBLIC "-//W3C//DTD SVG 1.1//EN" "http://www.w3.org/Graphics/SVG/1.1/DTD/svg11.dtd">
<svg xmlns="http://www.w3.org/2000/svg" version="1.1" viewBox="0 0 120 120">
<g stroke-width="2.00" fill="none" stroke-linecap="butt">
<path stroke="#81a0bc" vector-effect="non-scaling-stroke" d="
  M 21.31 0.00
  C 2.28 4.72 9.61 30.30 26.79 25.41
  Q 31.87 23.96 34.19 19.18
  C 38.39 10.51 33.26 1.68 24.06 0.00"
/>
<path stroke="#81a0bc" vector-effect="non-scaling-stroke" d="
  M 94.31 0.00
  L 91.01 4.22
  A 1.00 1.00 0.0 0 1 89.57 4.37
  Q 87.56 2.65 85.91 4.92
  Q 81.47 11.03 67.04 32.40
  A 1.01 1.01 0.0 0 0 67.02 33.49
  Q 68.09 35.20 69.90 36.07
  A 1.00 1.00 0.0 0 1 70.30 37.53
  L 65.54 44.55
  A 1.00 1.00 0.0 0 0 65.80 45.93
  L 76.14 53.16
  A 1.00 1.00 0.0 0 0 77.54 52.91
  L 82.38 45.85
  A 1.00 1.00 0.0 0 1 83.79 45.60
  L 85.90 47.13
  Q 87.59 48.35 88.93 46.46
  L 97.75 33.96"
/>
<path stroke="#9ee6fb" vector-effect="non-scaling-stroke" d="
  M 97.75 33.96
  L 99.54 35.75"
/>
<path stroke="#81a0bc" vector-effect="non-scaling-stroke" d="
  M 99.54 35.75
  L 98.51 36.62
  A 0.99 0.98 -27.9 0 0 98.19 37.64
  Q 99.01 40.72 102.00 38.96"
/>
<path stroke="#9ee6fb" vector-effect="non-scaling-stroke" d="
  M 102.00 38.96
  L 103.25 41.96"
/>
<path stroke="#81a0bc" vector-effect="non-scaling-stroke" d="
  M 103.25 41.96
  Q 102.39 42.28 101.81 42.97
  A 1.01 1.00 -36.2 0 0 101.65 43.98
  C 108.95 61.94 93.81 81.41 74.44 78.84
  Q 73.42 78.71 72.86 78.08
  Q 71.67 76.75 73.46 76.75
  L 78.00 76.75
  Q 80.55 76.75 80.52 74.75
  L 80.40 66.77
  A 1.00 1.00 0.0 0 0 79.40 65.78
  L 48.25 65.79"
/>
<path stroke="#e3f4fd" vector-effect="non-scaling-stroke" d="
  M 48.25 65.79
  Q 45.78 64.15 47.00 61.54"
/>
<path stroke="#81a0bc" vector-effect="non-scaling-stroke" d="
  M 47.00 61.54
  Q 48.09 61.72 48.87 61.41
  A 1.00 1.00 0.0 0 0 49.50 60.48
  L 49.50 48.69
  A 1.00 1.00 0.0 0 1 50.08 47.78
  C 57.30 44.43 54.59 35.28 46.34 35.26
  Q 34.51 35.22 22.68 35.27
  C 12.38 35.32 12.65 47.97 22.25 48.29"
/>
<path stroke="#e3f4fd" vector-effect="non-scaling-stroke" d="
  M 22.25 48.29
  L 22.00 50.96"
/>
<path stroke="#81a0bc" vector-effect="non-scaling-stroke" d="
  M 22.00 50.96
  Q 18.73 50.83 19.78 53.75
  A 1.01 1.00 -7.8 0 0 20.67 54.42
  L 23.00 54.54"
/>
<path stroke="#e3f4fd" vector-effect="non-scaling-stroke" d="
  M 23.00 54.54
  L 23.00 57.21"
/>
<path stroke="#81a0bc" vector-effect="non-scaling-stroke" d="
  M 23.00 57.21
  L 20.58 57.56
  A 1.01 1.01 0.0 0 0 19.72 58.59
  C 20.01 66.28 20.97 73.44 15.67 79.67
  Q 13.65 82.04 3.08 95.07
  Q 1.23 97.35 0.00 102.19"
/>
<path stroke="#81a0bc" vector-effect="non-scaling-stroke" d="
  M 56.35 23.67
  A 6.95 6.95 0.0 0 0 49.40 16.72
  A 6.95 6.95 0.0 0 0 42.45 23.67
  A 6.95 6.95 0.0 0 0 49.40 30.62
  A 6.95 6.95 0.0 0 0 56.35 23.67"
/>
<path stroke="#7695b2" vector-effect="non-scaling-stroke" d="
  M 31.49 13.09
  A 8.64 8.64 0.0 0 0 22.85 4.45
  A 8.64 8.64 0.0 0 0 14.21 13.09
  A 8.64 8.64 0.0 0 0 22.85 21.73
  A 8.64 8.64 0.0 0 0 31.49 13.09"
/>
<path stroke="#81a0bc" vector-effect="non-scaling-stroke" d="
  M 95.56 0.00
  L 108.58 9.08
  A 1.01 1.00 34.1 0 1 108.85 10.45
  L 106.14 14.60
  A 1.01 1.01 0.0 0 0 106.36 15.94
  Q 109.41 18.34 106.57 20.92
  A 1.00 1.00 0.0 0 0 106.55 22.38
  Q 118.45 33.77 120.00 50.31"
/>
<path stroke="#81a0bc" vector-effect="non-scaling-stroke" d="
  M 120.00 56.81
  Q 117.17 79.87 97.44 90.77
  Q 95.29 91.96 97.73 92.26
  Q 108.16 93.56 111.01 104.26
  A 1.01 1.00 -7.5 0 0 111.98 105.00
  L 118.52 105.00
  A 1.00 1.00 0.0 0 1 119.32 105.40
  Q 119.94 106.22 120.00 107.31"
/>
<path stroke="#81a0bc" vector-effect="non-scaling-stroke" d="
  M 53.94 120.00
  Q 52.57 119.29 52.46 117.75"
/>
<path stroke="#806f44" vector-effect="non-scaling-stroke" d="
  M 52.46 117.75
  L 52.50 105.90
  A 1.01 1.00 -89.7 0 1 53.50 104.90
  L 60.72 104.87
  A 1.00 1.00 0.0 0 0 61.64 104.26
  L 64.29 98.00"
/>
<path stroke="#7695b2" vector-effect="non-scaling-stroke" d="
  M 64.29 98.00
  L 66.59 95.77
  Q 68.68 93.74 65.84 94.42
  L 63.25 95.04"
/>
<path stroke="#806f44" vector-effect="non-scaling-stroke" d="
  M 63.25 95.04
  Q 55.02 94.18 52.25 86.46"
/>
<path stroke="#6595ba" vector-effect="non-scaling-stroke" d="
  M 52.25 86.46
  L 52.21 82.25"
/>
<path stroke="#81a0bc" vector-effect="non-scaling-stroke" d="
  M 52.21 82.25
  L 53.64 78.11
  A 1.00 1.00 0.0 0 0 52.65 76.79
  L 49.21 76.92"
/>
<path stroke="#6595ba" vector-effect="non-scaling-stroke" d="
  M 49.21 76.92
  C 44.45 77.25 45.94 69.42 46.37 66.92
  A 1.02 1.01 -3.4 0 1 47.08 66.13
  L 48.25 65.79"
/>
<path stroke="#2087b8" vector-effect="non-scaling-stroke" d="
  M 103.25 41.96
  L 104.21 41.57
  A 1.01 1.00 -21.1 0 1 105.52 42.14
  C 109.12 51.50 108.23 61.14 102.79 69.63
  Q 93.85 83.56 75.43 83.36
  A 1.00 1.00 0.0 0 0 74.42 84.31
  Q 74.26 87.19 72.75 89.58
  A 1.00 1.00 0.0 0 0 73.52 91.11
  Q 79.91 91.60 81.77 91.31
  C 101.41 88.23 115.34 73.83 115.80 54.06
  Q 116.16 38.28 104.42 26.27
  A 1.00 1.00 0.0 0 0 102.88 26.40
  L 97.75 33.96"
/>
<path stroke="#035ca3" vector-effect="non-scaling-stroke" d="
  M 103.2823 11.6497
  A 1.20 1.20 0.0 0 0 102.9614 9.9832
  L 96.5854 5.6663
  A 1.20 1.20 0.0 0 0 94.9189 5.9872
  L 94.5377 6.5503
  A 1.20 1.20 0.0 0 0 94.8586 8.2168
  L 101.2346 12.5337
  A 1.20 1.20 0.0 0 0 102.9011 12.2128
  L 103.2823 11.6497"
/>
<path stroke="#2087b8" vector-effect="non-scaling-stroke" d="
  M 102.6049 19.1182
  A 0.48 0.48 0.0 0 0 102.4812 18.4507
  L 88.7513 9.0144
  A 0.48 0.48 0.0 0 0 88.0838 9.1381
  L 72.3151 32.0818
  A 0.48 0.48 0.0 0 0 72.4388 32.7493
  L 86.1687 42.1856
  A 0.48 0.48 0.0 0 0 86.8362 42.0619
  L 102.6049 19.1182"
/>
<path stroke="#035ca3" vector-effect="non-scaling-stroke" d="
  M 79.0331 43.5404
  A 0.93 0.93 0.0 0 0 78.8228 42.2421
  L 75.1243 39.5747
  A 0.93 0.93 0.0 0 0 73.8260 39.7849
  L 71.1469 43.4996
  A 0.93 0.93 0.0 0 0 71.3572 44.7979
  L 75.0557 47.4653
  A 0.93 0.93 0.0 0 0 76.3540 47.2551
  L 79.0331 43.5404"
/>
<path stroke="#2087b8" vector-effect="non-scaling-stroke" d="
  M 76.2287 70.6072
  A 0.40 0.40 0.0 0 0 75.8280 70.2079
  L 50.5081 70.2521
  A 0.40 0.40 0.0 0 0 50.1088 70.6528
  L 50.1113 72.0728
  A 0.40 0.40 0.0 0 0 50.5120 72.4721
  L 75.8319 72.4279
  A 0.40 0.40 0.0 0 0 76.2312 72.0272
  L 76.2287 70.6072"
/>
<path stroke="#035ca3" vector-effect="non-scaling-stroke" d="
  M 70.13 83.71
  A 6.91 6.91 0.0 0 0 63.22 76.80
  A 6.91 6.91 0.0 0 0 56.31 83.71
  A 6.91 6.91 0.0 0 0 63.22 90.62
  A 6.91 6.91 0.0 0 0 70.13 83.71"
/>
<path stroke="#035ca3" vector-effect="non-scaling-stroke" d="
  M 65.78 107.42
  Q 62.22 109.80 57.62 109.26
  A 1.00 1.00 0.0 0 0 56.50 110.25
  L 56.50 115.00
  A 1.00 1.00 0.0 0 0 57.50 116.00
  L 114.96 116.00
  A 1.00 1.00 0.0 0 0 115.96 115.03
  L 116.12 110.06
  A 1.00 1.00 0.0 0 0 115.13 109.02
  Q 97.05 108.93 79.07 109.07
  Q 77.63 109.08 77.21 107.25"
/>
<path stroke="#2087b8" vector-effect="non-scaling-stroke" d="
  M 77.21 107.25
  L 77.60 105.75
  A 1.01 1.00 -82.5 0 1 78.57 105.00
  L 105.51 105.00
  A 1.00 1.00 0.0 0 0 106.45 103.64
  Q 103.69 96.46 95.48 96.33
  C 88.90 96.24 76.71 95.10 71.58 97.51
  Q 66.25 100.01 65.78 107.42"
/>
<path stroke="#1fa1e2" vector-effect="non-scaling-stroke" d="
  M 77.21 107.25
  L 74.04 107.48"
/>
<path stroke="#2087b8" vector-effect="non-scaling-stroke" d="
  M 74.04 107.48
  Q 72.05 101.64 69.21 107.00"
/>
<path stroke="#1fa1e2" vector-effect="non-scaling-stroke" d="
  M 69.21 107.00
  L 65.78 107.42"
/>
<path stroke="#035ca3" vector-effect="non-scaling-stroke" d="
  M 74.04 107.48
  Q 70.99 111.19 69.21 107.00"
/>
<path stroke="#7695b2" vector-effect="non-scaling-stroke" d="
  M 52.13 23.67
  A 2.70 2.70 0.0 0 0 49.43 20.97
  A 2.70 2.70 0.0 0 0 46.73 23.67
  A 2.70 2.70 0.0 0 0 49.43 26.37
  A 2.70 2.70 0.0 0 0 52.13 23.67"
/>
<path stroke="#2087b8" vector-effect="non-scaling-stroke" d="
  M 102.00 38.96
  C 104.13 36.66 101.01 33.94 99.54 35.75"
/>
<path stroke="#6595ba" vector-effect="non-scaling-stroke" d="
  M 47.00 61.54
  Q 46.50 61.62 46.02 61.50
  A 1.00 1.00 0.0 0 1 45.25 60.53
  L 45.25 49.28
  A 1.00 1.00 0.0 0 0 44.25 48.28
  L 22.25 48.29"
/>
<path stroke="#81a0bc" vector-effect="non-scaling-stroke" d="
  M 49.98 41.70
  A 2.20 2.20 0.0 0 0 47.78 39.50
  L 21.46 39.50
  A 2.20 2.20 0.0 0 0 19.26 41.70
  L 19.26 41.80
  A 2.20 2.20 0.0 0 0 21.46 44.00
  L 47.78 44.00
  A 2.20 2.20 0.0 0 0 49.98 41.80
  L 49.98 41.70"
/>
<path stroke="#e3f4fd" vector-effect="non-scaling-stroke" d="
  M 49.21 76.92
  Q 50.93 78.98 50.95 81.49
  A 0.80 0.80 0.0 0 0 51.81 82.28
  L 52.21 82.25"
/>
<path stroke="#e2c385" vector-effect="non-scaling-stroke" d="
  M 52.25 86.46
  Q 33.89 85.86 15.48 86.57"
/>
<path stroke="#6595ba" vector-effect="non-scaling-stroke" d="
  M 15.48 86.57
  C 18.53 82.87 23.70 77.50 23.73 72.50
  Q 23.78 65.19 23.73 57.87
  A 0.64 0.63 -79.1 0 0 23.34 57.28
  Q 23.18 57.21 23.00 57.21"
/>
<path stroke="#6595ba" vector-effect="non-scaling-stroke" d="
  M 23.00 54.54
  L 23.29 54.51
  A 0.52 0.51 -3.1 0 0 23.75 54.00
  L 23.75 51.76
  A 1.00 1.00 0.0 0 0 22.55 50.78
  Q 22.27 50.83 22.00 50.96"
/>
<path stroke="#806f44" vector-effect="non-scaling-stroke" d="
  M 15.48 86.57
  C 11.91 90.88 5.46 97.36 4.59 102.59
  C 3.39 109.86 9.06 115.76 16.25 115.75
  Q 31.55 115.75 46.86 115.75
  C 48.04 115.75 48.49 116.38 48.29 117.50"
/>
<path stroke="#81a0bc" vector-effect="non-scaling-stroke" d="
  M 48.29 117.50
  L 47.94 120.00"
/>
<path stroke="#81a0bc" vector-effect="non-scaling-stroke" d="
  M 13.94 120.00
  Q 2.41 117.70 0.00 106.19"
/>
<path stroke="#f3c37d" vector-effect="non-scaling-stroke" d="
  M 63.25 95.04
  L 64.29 98.00"
/>
<path stroke="#fece87" vector-effect="non-scaling-stroke" d="
  M 52.46 117.75
  Q 50.35 118.08 48.29 117.50"
/>
</g>
<path fill="#ffffff" d="
  M 0.00 0.00
  L 21.31 0.00
  C 2.28 4.72 9.61 30.30 26.79 25.41
  Q 31.87 23.96 34.19 19.18
  C 38.39 10.51 33.26 1.68 24.06 0.00
  L 94.31 0.00
  L 91.01 4.22
  A 1.00 1.00 0.0 0 1 89.57 4.37
  Q 87.56 2.65 85.91 4.92
  Q 81.47 11.03 67.04 32.40
  A 1.01 1.01 0.0 0 0 67.02 33.49
  Q 68.09 35.20 69.90 36.07
  A 1.00 1.00 0.0 0 1 70.30 37.53
  L 65.54 44.55
  A 1.00 1.00 0.0 0 0 65.80 45.93
  L 76.14 53.16
  A 1.00 1.00 0.0 0 0 77.54 52.91
  L 82.38 45.85
  A 1.00 1.00 0.0 0 1 83.79 45.60
  L 85.90 47.13
  Q 87.59 48.35 88.93 46.46
  L 97.75 33.96
  L 99.54 35.75
  L 98.51 36.62
  A 0.99 0.98 -27.9 0 0 98.19 37.64
  Q 99.01 40.72 102.00 38.96
  L 103.25 41.96
  Q 102.39 42.28 101.81 42.97
  A 1.01 1.00 -36.2 0 0 101.65 43.98
  C 108.95 61.94 93.81 81.41 74.44 78.84
  Q 73.42 78.71 72.86 78.08
  Q 71.67 76.75 73.46 76.75
  L 78.00 76.75
  Q 80.55 76.75 80.52 74.75
  L 80.40 66.77
  A 1.00 1.00 0.0 0 0 79.40 65.78
  L 48.25 65.79
  Q 45.78 64.15 47.00 61.54
  Q 48.09 61.72 48.87 61.41
  A 1.00 1.00 0.0 0 0 49.50 60.48
  L 49.50 48.69
  A 1.00 1.00 0.0 0 1 50.08 47.78
  C 57.30 44.43 54.59 35.28 46.34 35.26
  Q 34.51 35.22 22.68 35.27
  C 12.38 35.32 12.65 47.97 22.25 48.29
  L 22.00 50.96
  Q 18.73 50.83 19.78 53.75
  A 1.01 1.00 -7.8 0 0 20.67 54.42
  L 23.00 54.54
  L 23.00 57.21
  L 20.58 57.56
  A 1.01 1.01 0.0 0 0 19.72 58.59
  C 20.01 66.28 20.97 73.44 15.67 79.67
  Q 13.65 82.04 3.08 95.07
  Q 1.23 97.35 0.00 102.19
  L 0.00 0.00
  Z
  M 56.35 23.67
  A 6.95 6.95 0.0 0 0 49.40 16.72
  A 6.95 6.95 0.0 0 0 42.45 23.67
  A 6.95 6.95 0.0 0 0 49.40 30.62
  A 6.95 6.95 0.0 0 0 56.35 23.67
  Z"
/>
<path fill="#034179" d="
  M 21.31 0.00
  L 24.06 0.00
  C 33.26 1.68 38.39 10.51 34.19 19.18
  Q 31.87 23.96 26.79 25.41
  C 9.61 30.30 2.28 4.72 21.31 0.00
  Z
  M 31.49 13.09
  A 8.64 8.64 0.0 0 0 22.85 4.45
  A 8.64 8.64 0.0 0 0 14.21 13.09
  A 8.64 8.64 0.0 0 0 22.85 21.73
  A 8.64 8.64 0.0 0 0 31.49 13.09
  Z"
/>
<path fill="#034179" d="
  M 94.31 0.00
  L 95.56 0.00
  L 108.58 9.08
  A 1.01 1.00 34.1 0 1 108.85 10.45
  L 106.14 14.60
  A 1.01 1.01 0.0 0 0 106.36 15.94
  Q 109.41 18.34 106.57 20.92
  A 1.00 1.00 0.0 0 0 106.55 22.38
  Q 118.45 33.77 120.00 50.31
  L 120.00 56.81
  Q 117.17 79.87 97.44 90.77
  Q 95.29 91.96 97.73 92.26
  Q 108.16 93.56 111.01 104.26
  A 1.01 1.00 -7.5 0 0 111.98 105.00
  L 118.52 105.00
  A 1.00 1.00 0.0 0 1 119.32 105.40
  Q 119.94 106.22 120.00 107.31
  L 120.00 120.00
  L 53.94 120.00
  Q 52.57 119.29 52.46 117.75
  L 52.50 105.90
  A 1.01 1.00 -89.7 0 1 53.50 104.90
  L 60.72 104.87
  A 1.00 1.00 0.0 0 0 61.64 104.26
  L 64.29 98.00
  L 66.59 95.77
  Q 68.68 93.74 65.84 94.42
  L 63.25 95.04
  Q 55.02 94.18 52.25 86.46
  L 52.21 82.25
  L 53.64 78.11
  A 1.00 1.00 0.0 0 0 52.65 76.79
  L 49.21 76.92
  C 44.45 77.25 45.94 69.42 46.37 66.92
  A 1.02 1.01 -3.4 0 1 47.08 66.13
  L 48.25 65.79
  L 79.40 65.78
  A 1.00 1.00 0.0 0 1 80.40 66.77
  L 80.52 74.75
  Q 80.55 76.75 78.00 76.75
  L 73.46 76.75
  Q 71.67 76.75 72.86 78.08
  Q 73.42 78.71 74.44 78.84
  C 93.81 81.41 108.95 61.94 101.65 43.98
  A 1.01 1.00 -36.2 0 1 101.81 42.97
  Q 102.39 42.28 103.25 41.96
  L 104.21 41.57
  A 1.01 1.00 -21.1 0 1 105.52 42.14
  C 109.12 51.50 108.23 61.14 102.79 69.63
  Q 93.85 83.56 75.43 83.36
  A 1.00 1.00 0.0 0 0 74.42 84.31
  Q 74.26 87.19 72.75 89.58
  A 1.00 1.00 0.0 0 0 73.52 91.11
  Q 79.91 91.60 81.77 91.31
  C 101.41 88.23 115.34 73.83 115.80 54.06
  Q 116.16 38.28 104.42 26.27
  A 1.00 1.00 0.0 0 0 102.88 26.40
  L 97.75 33.96
  L 88.93 46.46
  Q 87.59 48.35 85.90 47.13
  L 83.79 45.60
  A 1.00 1.00 0.0 0 0 82.38 45.85
  L 77.54 52.91
  A 1.00 1.00 0.0 0 1 76.14 53.16
  L 65.80 45.93
  A 1.00 1.00 0.0 0 1 65.54 44.55
  L 70.30 37.53
  A 1.00 1.00 0.0 0 0 69.90 36.07
  Q 68.09 35.20 67.02 33.49
  A 1.01 1.01 0.0 0 1 67.04 32.40
  Q 81.47 11.03 85.91 4.92
  Q 87.56 2.65 89.57 4.37
  A 1.00 1.00 0.0 0 0 91.01 4.22
  L 94.31 0.00
  Z
  M 103.2823 11.6497
  A 1.20 1.20 0.0 0 0 102.9614 9.9832
  L 96.5854 5.6663
  A 1.20 1.20 0.0 0 0 94.9189 5.9872
  L 94.5377 6.5503
  A 1.20 1.20 0.0 0 0 94.8586 8.2168
  L 101.2346 12.5337
  A 1.20 1.20 0.0 0 0 102.9011 12.2128
  L 103.2823 11.6497
  Z
  M 102.6049 19.1182
  A 0.48 0.48 0.0 0 0 102.4812 18.4507
  L 88.7513 9.0144
  A 0.48 0.48 0.0 0 0 88.0838 9.1381
  L 72.3151 32.0818
  A 0.48 0.48 0.0 0 0 72.4388 32.7493
  L 86.1687 42.1856
  A 0.48 0.48 0.0 0 0 86.8362 42.0619
  L 102.6049 19.1182
  Z
  M 79.0331 43.5404
  A 0.93 0.93 0.0 0 0 78.8228 42.2421
  L 75.1243 39.5747
  A 0.93 0.93 0.0 0 0 73.8260 39.7849
  L 71.1469 43.4996
  A 0.93 0.93 0.0 0 0 71.3572 44.7979
  L 75.0557 47.4653
  A 0.93 0.93 0.0 0 0 76.3540 47.2551
  L 79.0331 43.5404
  Z
  M 76.2287 70.6072
  A 0.40 0.40 0.0 0 0 75.8280 70.2079
  L 50.5081 70.2521
  A 0.40 0.40 0.0 0 0 50.1088 70.6528
  L 50.1113 72.0728
  A 0.40 0.40 0.0 0 0 50.5120 72.4721
  L 75.8319 72.4279
  A 0.40 0.40 0.0 0 0 76.2312 72.0272
  L 76.2287 70.6072
  Z
  M 70.13 83.71
  A 6.91 6.91 0.0 0 0 63.22 76.80
  A 6.91 6.91 0.0 0 0 56.31 83.71
  A 6.91 6.91 0.0 0 0 63.22 90.62
  A 6.91 6.91 0.0 0 0 70.13 83.71
  Z
  M 65.78 107.42
  Q 62.22 109.80 57.62 109.26
  A 1.00 1.00 0.0 0 0 56.50 110.25
  L 56.50 115.00
  A 1.00 1.00 0.0 0 0 57.50 116.00
  L 114.96 116.00
  A 1.00 1.00 0.0 0 0 115.96 115.03
  L 116.12 110.06
  A 1.00 1.00 0.0 0 0 115.13 109.02
  Q 97.05 108.93 79.07 109.07
  Q 77.63 109.08 77.21 107.25
  L 77.60 105.75
  A 1.01 1.00 -82.5 0 1 78.57 105.00
  L 105.51 105.00
  A 1.00 1.00 0.0 0 0 106.45 103.64
  Q 103.69 96.46 95.48 96.33
  C 88.90 96.24 76.71 95.10 71.58 97.51
  Q 66.25 100.01 65.78 107.42
  Z"
/>
<path fill="#ffffff" d="
  M 95.56 0.00
  L 120.00 0.00
  L 120.00 50.31
  Q 118.45 33.77 106.55 22.38
  A 1.00 1.00 0.0 0 1 106.57 20.92
  Q 109.41 18.34 106.36 15.94
  A 1.01 1.01 0.0 0 1 106.14 14.60
  L 108.85 10.45
  A 1.01 1.00 34.1 0 0 108.58 9.08
  L 95.56 0.00
  Z"
/>
<circle fill="#e8e9ea" cx="22.85" cy="13.09" r="8.64"/>
<rect fill="#0276cd" x="-5.05" y="-1.54" transform="translate(98.91,9.10) rotate(34.1)" width="10.10" height="3.08" rx="1.20"/>
<rect fill="#3cccf6" x="-8.81" y="-14.40" transform="translate(87.46,25.60) rotate(34.5)" width="17.62" height="28.80" rx="0.48"/>
<path fill="#034179" d="
  M 56.35 23.67
  A 6.95 6.95 0.0 0 1 49.40 30.62
  A 6.95 6.95 0.0 0 1 42.45 23.67
  A 6.95 6.95 0.0 0 1 49.40 16.72
  A 6.95 6.95 0.0 0 1 56.35 23.67
  Z
  M 52.13 23.67
  A 2.70 2.70 0.0 0 0 49.43 20.97
  A 2.70 2.70 0.0 0 0 46.73 23.67
  A 2.70 2.70 0.0 0 0 49.43 26.37
  A 2.70 2.70 0.0 0 0 52.13 23.67
  Z"
/>
<circle fill="#e8e9ea" cx="49.43" cy="23.67" r="2.70"/>
<path fill="#3cccf6" d="
  M 103.25 41.96
  L 102.00 38.96
  C 104.13 36.66 101.01 33.94 99.54 35.75
  L 97.75 33.96
  L 102.88 26.40
  A 1.00 1.00 0.0 0 1 104.42 26.27
  Q 116.16 38.28 115.80 54.06
  C 115.34 73.83 101.41 88.23 81.77 91.31
  Q 79.91 91.60 73.52 91.11
  A 1.00 1.00 0.0 0 1 72.75 89.58
  Q 74.26 87.19 74.42 84.31
  A 1.00 1.00 0.0 0 1 75.43 83.36
  Q 93.85 83.56 102.79 69.63
  C 108.23 61.14 109.12 51.50 105.52 42.14
  A 1.01 1.00 -21.1 0 0 104.21 41.57
  L 103.25 41.96
  Z"
/>
<path fill="#034179" d="
  M 102.00 38.96
  Q 99.01 40.72 98.19 37.64
  A 0.99 0.98 -27.9 0 1 98.51 36.62
  L 99.54 35.75
  C 101.01 33.94 104.13 36.66 102.00 38.96
  Z"
/>
<path fill="#034179" d="
  M 47.00 61.54
  Q 46.50 61.62 46.02 61.50
  A 1.00 1.00 0.0 0 1 45.25 60.53
  L 45.25 49.28
  A 1.00 1.00 0.0 0 0 44.25 48.28
  L 22.25 48.29
  C 12.65 47.97 12.38 35.32 22.68 35.27
  Q 34.51 35.22 46.34 35.26
  C 54.59 35.28 57.30 44.43 50.08 47.78
  A 1.00 1.00 0.0 0 0 49.50 48.69
  L 49.50 60.48
  A 1.00 1.00 0.0 0 1 48.87 61.41
  Q 48.09 61.72 47.00 61.54
  Z
  M 49.98 41.70
  A 2.20 2.20 0.0 0 0 47.78 39.50
  L 21.46 39.50
  A 2.20 2.20 0.0 0 0 19.26 41.70
  L 19.26 41.80
  A 2.20 2.20 0.0 0 0 21.46 44.00
  L 47.78 44.00
  A 2.20 2.20 0.0 0 0 49.98 41.80
  L 49.98 41.70
  Z"
/>
<rect fill="#0276cd" x="-3.21" y="-3.22" transform="translate(75.09,43.52) rotate(35.8)" width="6.42" height="6.44" rx="0.93"/>
<rect fill="#ffffff" x="19.26" y="39.50" width="30.72" height="4.50" rx="2.20"/>
<path fill="#c7e9fb" d="
  M 22.25 48.29
  L 44.25 48.28
  A 1.00 1.00 0.0 0 1 45.25 49.28
  L 45.25 60.53
  A 1.00 1.00 0.0 0 0 46.02 61.50
  Q 46.50 61.62 47.00 61.54
  Q 45.78 64.15 48.25 65.79
  L 47.08 66.13
  A 1.02 1.01 -3.4 0 0 46.37 66.92
  C 45.94 69.42 44.45 77.25 49.21 76.92
  Q 50.93 78.98 50.95 81.49
  A 0.80 0.80 0.0 0 0 51.81 82.28
  L 52.21 82.25
  L 52.25 86.46
  Q 33.89 85.86 15.48 86.57
  C 18.53 82.87 23.70 77.50 23.73 72.50
  Q 23.78 65.19 23.73 57.87
  A 0.64 0.63 -79.1 0 0 23.34 57.28
  Q 23.18 57.21 23.00 57.21
  L 23.00 54.54
  L 23.29 54.51
  A 0.52 0.51 -3.1 0 0 23.75 54.00
  L 23.75 51.76
  A 1.00 1.00 0.0 0 0 22.55 50.78
  Q 22.27 50.83 22.00 50.96
  L 22.25 48.29
  Z"
/>
<path fill="#034179" d="
  M 23.00 54.54
  L 20.67 54.42
  A 1.01 1.00 -7.8 0 1 19.78 53.75
  Q 18.73 50.83 22.00 50.96
  Q 22.27 50.83 22.55 50.78
  A 1.00 1.00 0.0 0 1 23.75 51.76
  L 23.75 54.00
  A 0.52 0.51 -3.1 0 1 23.29 54.51
  L 23.00 54.54
  Z"
/>
<path fill="#ffffff" d="
  M 120.00 56.81
  L 120.00 107.31
  Q 119.94 106.22 119.32 105.40
  A 1.00 1.00 0.0 0 0 118.52 105.00
  L 111.98 105.00
  A 1.01 1.00 -7.5 0 1 111.01 104.26
  Q 108.16 93.56 97.73 92.26
  Q 95.29 91.96 97.44 90.77
  Q 117.17 79.87 120.00 56.81
  Z"
/>
<path fill="#034179" d="
  M 23.00 57.21
  Q 23.18 57.21 23.34 57.28
  A 0.64 0.63 -79.1 0 1 23.73 57.87
  Q 23.78 65.19 23.73 72.50
  C 23.70 77.50 18.53 82.87 15.48 86.57
  C 11.91 90.88 5.46 97.36 4.59 102.59
  C 3.39 109.86 9.06 115.76 16.25 115.75
  Q 31.55 115.75 46.86 115.75
  C 48.04 115.75 48.49 116.38 48.29 117.50
  L 47.94 120.00
  L 13.94 120.00
  Q 2.41 117.70 0.00 106.19
  L 0.00 102.19
  Q 1.23 97.35 3.08 95.07
  Q 13.65 82.04 15.67 79.67
  C 20.97 73.44 20.01 66.28 19.72 58.59
  A 1.01 1.01 0.0 0 1 20.58 57.56
  L 23.00 57.21
  Z"
/>
<rect fill="#3cccf6" x="-13.06" y="-1.11" transform="translate(63.17,71.34) rotate(-0.1)" width="26.12" height="2.22" rx="0.40"/>
<path fill="#ffffff" d="
  M 52.21 82.25
  L 51.81 82.28
  A 0.80 0.80 0.0 0 1 50.95 81.49
  Q 50.93 78.98 49.21 76.92
  L 52.65 76.79
  A 1.00 1.00 0.0 0 1 53.64 78.11
  L 52.21 82.25
  Z"
/>
<circle fill="#0276cd" cx="63.22" cy="83.71" r="6.91"/>
<path fill="#fd9c0f" d="
  M 52.25 86.46
  Q 55.02 94.18 63.25 95.04
  L 64.29 98.00
  L 61.64 104.26
  A 1.00 1.00 0.0 0 1 60.72 104.87
  L 53.50 104.90
  A 1.01 1.00 -89.7 0 0 52.50 105.90
  L 52.46 117.75
  Q 50.35 118.08 48.29 117.50
  C 48.49 116.38 48.04 115.75 46.86 115.75
  Q 31.55 115.75 16.25 115.75
  C 9.06 115.76 3.39 109.86 4.59 102.59
  C 5.46 97.36 11.91 90.88 15.48 86.57
  Q 33.89 85.86 52.25 86.46
  Z"
/>
<path fill="#e8e9ea" d="
  M 64.29 98.00
  L 63.25 95.04
  L 65.84 94.42
  Q 68.68 93.74 66.59 95.77
  L 64.29 98.00
  Z"
/>
<path fill="#3cccf6" d="
  M 77.21 107.25
  L 74.04 107.48
  Q 72.05 101.64 69.21 107.00
  L 65.78 107.42
  Q 66.25 100.01 71.58 97.51
  C 76.71 95.10 88.90 96.24 95.48 96.33
  Q 103.69 96.46 106.45 103.64
  A 1.00 1.00 0.0 0 1 105.51 105.00
  L 78.57 105.00
  A 1.01 1.00 -82.5 0 0 77.60 105.75
  L 77.21 107.25
  Z"
/>
<path fill="#034179" d="
  M 74.04 107.48
  Q 70.99 111.19 69.21 107.00
  Q 72.05 101.64 74.04 107.48
  Z"
/>
<path fill="#ffffff" d="
  M 0.00 106.19
  Q 2.41 117.70 13.94 120.00
  L 0.00 120.00
  L 0.00 106.19
  Z"
/>
<path fill="#0276cd" d="
  M 69.21 107.00
  Q 70.99 111.19 74.04 107.48
  L 77.21 107.25
  Q 77.63 109.08 79.07 109.07
  Q 97.05 108.93 115.13 109.02
  A 1.00 1.00 0.0 0 1 116.12 110.06
  L 115.96 115.03
  A 1.00 1.00 0.0 0 1 114.96 116.00
  L 57.50 116.00
  A 1.00 1.00 0.0 0 1 56.50 115.00
  L 56.50 110.25
  A 1.00 1.00 0.0 0 1 57.62 109.26
  Q 62.22 109.80 65.78 107.42
  L 69.21 107.00
  Z"
/>
<path fill="#ffffff" d="
  M 48.29 117.50
  Q 50.35 118.08 52.46 117.75
  Q 52.57 119.29 53.94 120.00
  L 47.94 120.00
  L 48.29 117.50
  Z"
/>
</svg>
