<?xml version="1.0" encoding="UTF-8" standalone="no"?>
<!DOCTYPE svg PUBLIC "-//W3C//DTD SVG 1.1//EN" "http://www.w3.org/Graphics/SVG/1.1/DTD/svg11.dtd">
<svg xmlns="http://www.w3.org/2000/svg" version="1.1" viewBox="0 0 108 108">
<g stroke-width="2.00" fill="none" stroke-linecap="butt">
<path stroke="#87c2f0" vector-effect="non-scaling-stroke" d="
  M 108.00 45.81
  C 107.01 42.17 102.68 42.76 99.74 42.66
  A 1.01 1.00 -6.3 0 1 98.81 41.92
  Q 97.59 37.37 95.26 33.26
  A 0.99 0.99 0.0 0 1 95.37 32.12
  C 98.12 28.89 102.02 26.26 97.81 21.93
  Q 93.20 17.18 88.36 12.63
  C 84.39 8.90 82.16 9.58 78.87 13.41
  Q 77.46 15.06 75.53 14.00
  Q 71.80 11.95 67.77 10.89
  A 1.02 1.02 0.0 0 1 67.02 9.93
  C 66.97 6.20 67.20 1.00 62.00 1.00
  C 58.10 1.00 47.26 0.01 44.31 2.13
  Q 41.41 4.21 42.49 9.22
  A 0.99 0.99 0.0 0 1 41.91 10.35
  L 32.49 14.36
  A 1.00 1.00 0.0 0 1 31.46 14.21
  C 28.73 11.94 25.83 7.64 22.08 11.34
  Q 17.29 16.06 12.54 20.83
  C 7.62 25.77 9.79 27.65 13.69 31.85
  A 0.99 0.99 0.0 0 1 13.88 32.91
  L 10.02 42.14
  A 1.01 1.00 -74.6 0 1 8.95 42.75
  C 5.59 42.25 0.87 42.69 0.78 47.25
  Q 0.67 52.50 0.78 61.55
  C 0.81 64.36 1.66 67.33 4.74 67.50
  Q 7.02 67.63 9.35 67.71
  A 1.01 0.99 79.4 0 1 10.24 68.33
  L 13.51 76.23
  Q 14.44 78.48 12.89 79.68
  C 7.96 83.51 9.29 86.22 13.18 90.07
  Q 17.76 94.62 22.33 99.19
  Q 25.01 101.88 27.47 99.73
  L 31.53 96.19
  A 1.01 1.01 0.0 0 1 32.58 96.02
  L 41.42 99.71
  A 1.01 1.01 0.0 0 1 42.03 100.62
  Q 42.09 104.81 42.48 106.24
  Q 42.80 107.38 44.19 108.00"
/>
<path stroke="#87c2f0" vector-effect="non-scaling-stroke" d="
  M 108.00 65.31
  C 106.60 67.22 105.30 67.74 102.76 67.68
  Q 101.34 67.65 99.91 67.93
  A 0.99 0.97 5.4 0 0 99.18 68.52
  L 95.40 77.47
  A 0.99 0.98 -55.7 0 0 95.60 78.55
  L 99.00 82.02
  Q 101.58 84.66 99.01 87.26
  L 86.69 99.70
  Q 84.28 102.13 81.98 100.03
  L 77.82 96.22
  A 1.00 0.98 -35.0 0 0 76.75 96.04
  L 67.24 100.12
  A 0.99 0.99 0.0 0 0 66.65 101.22
  Q 67.58 106.31 65.19 108.00"
/>
<path stroke="#87c2f0" vector-effect="non-scaling-stroke" d="
  M 15.20 24.67
  Q 15.09 24.74 14.99 24.83
  A 1.01 1.00 47.0 0 0 14.94 26.24
  L 18.19 29.80
  Q 19.83 31.59 18.62 34.10
  C 17.26 36.91 14.83 45.08 12.38 46.42
  Q 9.83 47.82 6.72 47.16
  A 1.00 1.00 0.0 0 0 5.51 48.14
  L 5.50 61.95
  A 1.00 0.99 -88.8 0 0 6.45 62.95
  L 12.66 63.24
  A 1.03 1.00 -8.4 0 1 13.55 63.88
  Q 15.86 69.88 18.43 76.25
  C 19.84 79.73 17.14 81.68 15.04 83.89
  A 1.01 1.01 0.0 0 0 15.05 85.28
  L 24.49 94.91
  A 1.00 1.00 0.0 0 0 25.89 94.94
  L 30.41 90.70
  A 0.99 0.97 -55.2 0 1 31.47 90.50
  L 43.54 95.50
  Q 46.78 96.84 46.74 99.06
  L 46.65 103.48
  A 1.00 1.00 0.0 0 0 47.65 104.50
  L 61.67 104.50
  A 0.99 0.99 0.0 0 0 62.64 103.30
  Q 61.87 99.65 63.55 96.56
  A 0.99 0.95 -86.0 0 1 64.05 96.11
  L 76.60 90.93
  A 1.08 1.02 -46.7 0 1 77.26 90.89
  Q 80.75 91.90 82.75 94.93
  A 1.00 1.00 0.0 0 0 84.29 95.08
  L 94.14 85.24
  A 1.01 1.00 46.1 0 0 94.16 83.85
  L 89.92 79.31
  A 1.01 1.00 35.4 0 1 89.73 78.24
  L 94.91 65.85
  Q 95.98 63.32 97.99 63.21
  L 102.81 62.95
  A 1.00 1.00 0.0 0 0 103.76 61.95
  L 103.71 48.27
  A 1.01 1.00 0.0 0 0 102.70 47.27
  Q 101.02 47.28 99.32 47.20
  C 94.40 46.98 94.69 43.81 93.20 40.37
  Q 91.59 36.63 90.01 32.72
  A 1.04 1.00 47.4 0 1 90.03 31.92
  Q 91.49 28.81 94.22 26.70
  A 1.01 1.00 -41.4 0 0 94.32 25.20
  L 84.72 15.57
  A 1.00 1.00 0.0 0 0 83.32 15.55
  C 79.49 19.21 78.39 20.34 73.04 17.87
  Q 68.70 15.88 64.09 14.27
  A 1.01 1.00 87.0 0 1 63.50 13.73
  Q 62.13 10.57 62.52 7.11
  A 1.00 0.99 3.3 0 0 61.53 6.00
  L 48.04 6.00
  A 1.00 1.00 0.0 0 0 47.04 6.95
  L 46.81 11.51
  Q 46.69 13.88 44.26 14.75
  Q 39.90 16.29 35.70 18.21
  C 30.79 20.45 29.36 18.71 26.13 15.24
  A 1.00 1.00 0.0 0 0 24.70 15.21
  Q 19.98 19.87 15.29 24.59
  Q 15.25 24.63 15.20 24.67"
/>
<path stroke="#f0ce8b" vector-effect="non-scaling-stroke" d="
  M 59.22 75.29
  Q 57.36 74.72 59.09 73.82
  Q 63.25 71.65 59.89 69.21
  Q 59.45 68.89 58.40 68.62
  Q 58.07 68.54 57.75 68.42
  Q 56.20 67.80 57.76 67.22
  Q 59.94 66.41 60.39 65.92
  C 64.18 61.70 54.56 59.87 52.15 58.97
  A 0.99 0.98 10.4 0 1 51.50 58.03
  Q 51.56 51.07 49.33 44.53
  C 47.96 40.53 44.51 37.32 44.43 33.11
  C 44.15 19.68 65.90 19.95 64.52 34.10
  Q 64.33 36.05 62.60 38.93
  Q 58.94 45.01 57.87 52.13
  C 57.48 54.75 58.79 57.15 61.67 54.95
  A 0.98 0.96 -14.5 0 0 62.05 54.32
  C 63.13 47.88 65.04 44.60 67.49 39.59
  C 74.20 25.83 59.02 12.87 46.66 20.68
  C 39.09 25.47 38.16 34.37 43.00 42.03
  C 46.73 47.93 47.42 54.35 46.81 61.50
  A 1.01 1.00 7.9 0 0 47.63 62.57
  Q 55.73 64.04 48.74 65.20
  A 0.99 0.98 -78.2 0 0 48.06 65.65
  Q 45.56 69.57 49.94 70.27
  A 0.99 0.97 -13.4 0 1 50.59 70.66
  C 51.54 71.93 45.99 71.08 47.39 75.26
  A 0.97 0.97 0.0 0 0 47.95 75.86
  L 51.60 77.39
  A 1.00 1.00 0.0 0 1 52.21 78.31
  L 52.21 85.67
  A 1.01 1.01 0.0 0 1 51.03 86.66
  Q 31.63 83.29 25.14 66.77
  C 20.23 54.29 23.05 41.57 32.28 32.01
  A 1.00 1.00 0.0 0 0 32.56 31.34
  C 32.68 26.90 29.16 28.64 27.54 30.49
  C 6.09 55.09 23.08 91.34 55.74 91.50
  A 1.01 1.00 0.0 0 0 56.75 90.50
  L 56.75 81.81
  A 1.01 1.00 -17.2 0 1 57.19 80.98
  C 59.08 79.69 62.65 79.75 60.88 76.14
  A 1.01 1.00 85.6 0 0 60.28 75.62
  L 59.22 75.29"
/>
<path stroke="#f0ce8b" vector-effect="non-scaling-stroke" d="
  M 81.28 30.48
  C 79.59 28.61 76.83 27.42 76.47 31.28
  A 1.01 1.01 0.0 0 0 76.74 32.06
  C 92.99 49.12 88.02 74.70 66.79 84.63
  A 0.99 0.97 -86.6 0 0 66.34 85.04
  C 64.15 88.93 68.06 89.32 70.43 88.12
  C 92.53 76.96 97.88 48.81 81.28 30.48"
/>
</g>
<path fill="#ffffff" d="
  M 0.00 0.00
  L 108.00 0.00
  L 108.00 45.81
  C 107.01 42.17 102.68 42.76 99.74 42.66
  A 1.01 1.00 -6.3 0 1 98.81 41.92
  Q 97.59 37.37 95.26 33.26
  A 0.99 0.99 0.0 0 1 95.37 32.12
  C 98.12 28.89 102.02 26.26 97.81 21.93
  Q 93.20 17.18 88.36 12.63
  C 84.39 8.90 82.16 9.58 78.87 13.41
  Q 77.46 15.06 75.53 14.00
  Q 71.80 11.95 67.77 10.89
  A 1.02 1.02 0.0 0 1 67.02 9.93
  C 66.97 6.20 67.20 1.00 62.00 1.00
  C 58.10 1.00 47.26 0.01 44.31 2.13
  Q 41.41 4.21 42.49 9.22
  A 0.99 0.99 0.0 0 1 41.91 10.35
  L 32.49 14.36
  A 1.00 1.00 0.0 0 1 31.46 14.21
  C 28.73 11.94 25.83 7.64 22.08 11.34
  Q 17.29 16.06 12.54 20.83
  C 7.62 25.77 9.79 27.65 13.69 31.85
  A 0.99 0.99 0.0 0 1 13.88 32.91
  L 10.02 42.14
  A 1.01 1.00 -74.6 0 1 8.95 42.75
  C 5.59 42.25 0.87 42.69 0.78 47.25
  Q 0.67 52.50 0.78 61.55
  C 0.81 64.36 1.66 67.33 4.74 67.50
  Q 7.02 67.63 9.35 67.71
  A 1.01 0.99 79.4 0 1 10.24 68.33
  L 13.51 76.23
  Q 14.44 78.48 12.89 79.68
  C 7.96 83.51 9.29 86.22 13.18 90.07
  Q 17.76 94.62 22.33 99.19
  Q 25.01 101.88 27.47 99.73
  L 31.53 96.19
  A 1.01 1.01 0.0 0 1 32.58 96.02
  L 41.42 99.71
  A 1.01 1.01 0.0 0 1 42.03 100.62
  Q 42.09 104.81 42.48 106.24
  Q 42.80 107.38 44.19 108.00
  L 0.00 108.00
  L 0.00 0.00
  Z"
/>
<path fill="#0e84e1" d="
  M 108.00 45.81
  L 108.00 65.31
  C 106.60 67.22 105.30 67.74 102.76 67.68
  Q 101.34 67.65 99.91 67.93
  A 0.99 0.97 5.4 0 0 99.18 68.52
  L 95.40 77.47
  A 0.99 0.98 -55.7 0 0 95.60 78.55
  L 99.00 82.02
  Q 101.58 84.66 99.01 87.26
  L 86.69 99.70
  Q 84.28 102.13 81.98 100.03
  L 77.82 96.22
  A 1.00 0.98 -35.0 0 0 76.75 96.04
  L 67.24 100.12
  A 0.99 0.99 0.0 0 0 66.65 101.22
  Q 67.58 106.31 65.19 108.00
  L 44.19 108.00
  Q 42.80 107.38 42.48 106.24
  Q 42.09 104.81 42.03 100.62
  A 1.01 1.01 0.0 0 0 41.42 99.71
  L 32.58 96.02
  A 1.01 1.01 0.0 0 0 31.53 96.19
  L 27.47 99.73
  Q 25.01 101.88 22.33 99.19
  Q 17.76 94.62 13.18 90.07
  C 9.29 86.22 7.96 83.51 12.89 79.68
  Q 14.44 78.48 13.51 76.23
  L 10.24 68.33
  A 1.01 0.99 79.4 0 0 9.35 67.71
  Q 7.02 67.63 4.74 67.50
  C 1.66 67.33 0.81 64.36 0.78 61.55
  Q 0.67 52.50 0.78 47.25
  C 0.87 42.69 5.59 42.25 8.95 42.75
  A 1.01 1.00 -74.6 0 0 10.02 42.14
  L 13.88 32.91
  A 0.99 0.99 0.0 0 0 13.69 31.85
  C 9.79 27.65 7.62 25.77 12.54 20.83
  Q 17.29 16.06 22.08 11.34
  C 25.83 7.64 28.73 11.94 31.46 14.21
  A 1.00 1.00 0.0 0 0 32.49 14.36
  L 41.91 10.35
  A 0.99 0.99 0.0 0 0 42.49 9.22
  Q 41.41 4.21 44.31 2.13
  C 47.26 0.01 58.10 1.00 62.00 1.00
  C 67.20 1.00 66.97 6.20 67.02 9.93
  A 1.02 1.02 0.0 0 0 67.77 10.89
  Q 71.80 11.95 75.53 14.00
  Q 77.46 15.06 78.87 13.41
  C 82.16 9.58 84.39 8.90 88.36 12.63
  Q 93.20 17.18 97.81 21.93
  C 102.02 26.26 98.12 28.89 95.37 32.12
  A 0.99 0.99 0.0 0 0 95.26 33.26
  Q 97.59 37.37 98.81 41.92
  A 1.01 1.00 -6.3 0 0 99.74 42.66
  C 102.68 42.76 107.01 42.17 108.00 45.81
  Z
  M 15.20 24.67
  Q 15.09 24.74 14.99 24.83
  A 1.01 1.00 47.0 0 0 14.94 26.24
  L 18.19 29.80
  Q 19.83 31.59 18.62 34.10
  C 17.26 36.91 14.83 45.08 12.38 46.42
  Q 9.83 47.82 6.72 47.16
  A 1.00 1.00 0.0 0 0 5.51 48.14
  L 5.50 61.95
  A 1.00 0.99 -88.8 0 0 6.45 62.95
  L 12.66 63.24
  A 1.03 1.00 -8.4 0 1 13.55 63.88
  Q 15.86 69.88 18.43 76.25
  C 19.84 79.73 17.14 81.68 15.04 83.89
  A 1.01 1.01 0.0 0 0 15.05 85.28
  L 24.49 94.91
  A 1.00 1.00 0.0 0 0 25.89 94.94
  L 30.41 90.70
  A 0.99 0.97 -55.2 0 1 31.47 90.50
  L 43.54 95.50
  Q 46.78 96.84 46.74 99.06
  L 46.65 103.48
  A 1.00 1.00 0.0 0 0 47.65 104.50
  L 61.67 104.50
  A 0.99 0.99 0.0 0 0 62.64 103.30
  Q 61.87 99.65 63.55 96.56
  A 0.99 0.95 -86.0 0 1 64.05 96.11
  L 76.60 90.93
  A 1.08 1.02 -46.7 0 1 77.26 90.89
  Q 80.75 91.90 82.75 94.93
  A 1.00 1.00 0.0 0 0 84.29 95.08
  L 94.14 85.24
  A 1.01 1.00 46.1 0 0 94.16 83.85
  L 89.92 79.31
  A 1.01 1.00 35.4 0 1 89.73 78.24
  L 94.91 65.85
  Q 95.98 63.32 97.99 63.21
  L 102.81 62.95
  A 1.00 1.00 0.0 0 0 103.76 61.95
  L 103.71 48.27
  A 1.01 1.00 0.0 0 0 102.70 47.27
  Q 101.02 47.28 99.32 47.20
  C 94.40 46.98 94.69 43.81 93.20 40.37
  Q 91.59 36.63 90.01 32.72
  A 1.04 1.00 47.4 0 1 90.03 31.92
  Q 91.49 28.81 94.22 26.70
  A 1.01 1.00 -41.4 0 0 94.32 25.20
  L 84.72 15.57
  A 1.00 1.00 0.0 0 0 83.32 15.55
  C 79.49 19.21 78.39 20.34 73.04 17.87
  Q 68.70 15.88 64.09 14.27
  A 1.01 1.00 87.0 0 1 63.50 13.73
  Q 62.13 10.57 62.52 7.11
  A 1.00 0.99 3.3 0 0 61.53 6.00
  L 48.04 6.00
  A 1.00 1.00 0.0 0 0 47.04 6.95
  L 46.81 11.51
  Q 46.69 13.88 44.26 14.75
  Q 39.90 16.29 35.70 18.21
  C 30.79 20.45 29.36 18.71 26.13 15.24
  A 1.00 1.00 0.0 0 0 24.70 15.21
  Q 19.98 19.87 15.29 24.59
  Q 15.25 24.63 15.20 24.67
  Z"
/>
<path fill="#ffffff" d="
  M 15.29 24.59
  Q 19.98 19.87 24.70 15.21
  A 1.00 1.00 0.0 0 1 26.13 15.24
  C 29.36 18.71 30.79 20.45 35.70 18.21
  Q 39.90 16.29 44.26 14.75
  Q 46.69 13.88 46.81 11.51
  L 47.04 6.95
  A 1.00 1.00 0.0 0 1 48.04 6.00
  L 61.53 6.00
  A 1.00 0.99 3.3 0 1 62.52 7.11
  Q 62.13 10.57 63.50 13.73
  A 1.01 1.00 87.0 0 0 64.09 14.27
  Q 68.70 15.88 73.04 17.87
  C 78.39 20.34 79.49 19.21 83.32 15.55
  A 1.00 1.00 0.0 0 1 84.72 15.57
  L 94.32 25.20
  A 1.01 1.00 -41.4 0 1 94.22 26.70
  Q 91.49 28.81 90.03 31.92
  A 1.04 1.00 47.4 0 0 90.01 32.72
  Q 91.59 36.63 93.20 40.37
  C 94.69 43.81 94.40 46.98 99.32 47.20
  Q 101.02 47.28 102.70 47.27
  A 1.01 1.00 -0.0 0 1 103.71 48.27
  L 103.76 61.95
  A 1.00 1.00 0.0 0 1 102.81 62.95
  L 97.99 63.21
  Q 95.98 63.32 94.91 65.85
  L 89.73 78.24
  A 1.01 1.00 35.4 0 0 89.92 79.31
  L 94.16 83.85
  A 1.01 1.00 46.1 0 1 94.14 85.24
  L 84.29 95.08
  A 1.00 1.00 0.0 0 1 82.75 94.93
  Q 80.75 91.90 77.26 90.89
  A 1.08 1.02 -46.7 0 0 76.60 90.93
  L 64.05 96.11
  A 0.99 0.95 -86.0 0 0 63.55 96.56
  Q 61.87 99.65 62.64 103.30
  A 0.99 0.99 0.0 0 1 61.67 104.50
  L 47.65 104.50
  A 1.00 1.00 0.0 0 1 46.65 103.48
  L 46.74 99.06
  Q 46.78 96.84 43.54 95.50
  L 31.47 90.50
  A 0.99 0.97 -55.2 0 0 30.41 90.70
  L 25.89 94.94
  A 1.00 1.00 0.0 0 1 24.49 94.91
  L 15.05 85.28
  A 1.01 1.01 0.0 0 1 15.04 83.89
  C 17.14 81.68 19.84 79.73 18.43 76.25
  Q 15.86 69.88 13.55 63.88
  A 1.03 1.00 -8.4 0 0 12.66 63.24
  L 6.45 62.95
  A 1.00 0.99 -88.8 0 1 5.50 61.95
  L 5.51 48.14
  A 1.00 1.00 0.0 0 1 6.72 47.16
  Q 9.83 47.82 12.38 46.42
  C 14.83 45.08 17.26 36.91 18.62 34.10
  Q 19.83 31.59 18.19 29.80
  L 14.94 26.24
  A 1.01 1.00 47.0 0 1 14.99 24.83
  Q 15.09 24.74 15.20 24.67
  Q 15.25 24.63 15.29 24.59
  Z
  M 59.22 75.29
  Q 57.36 74.72 59.09 73.82
  Q 63.25 71.65 59.89 69.21
  Q 59.45 68.89 58.40 68.62
  Q 58.07 68.54 57.75 68.42
  Q 56.20 67.80 57.76 67.22
  Q 59.94 66.41 60.39 65.92
  C 64.18 61.70 54.56 59.87 52.15 58.97
  A 0.99 0.98 10.4 0 1 51.50 58.03
  Q 51.56 51.07 49.33 44.53
  C 47.96 40.53 44.51 37.32 44.43 33.11
  C 44.15 19.68 65.90 19.95 64.52 34.10
  Q 64.33 36.05 62.60 38.93
  Q 58.94 45.01 57.87 52.13
  C 57.48 54.75 58.79 57.15 61.67 54.95
  A 0.98 0.96 -14.5 0 0 62.05 54.32
  C 63.13 47.88 65.04 44.60 67.49 39.59
  C 74.20 25.83 59.02 12.87 46.66 20.68
  C 39.09 25.47 38.16 34.37 43.00 42.03
  C 46.73 47.93 47.42 54.35 46.81 61.50
  A 1.01 1.00 7.9 0 0 47.63 62.57
  Q 55.73 64.04 48.74 65.20
  A 0.99 0.98 -78.2 0 0 48.06 65.65
  Q 45.56 69.57 49.94 70.27
  A 0.99 0.97 -13.4 0 1 50.59 70.66
  C 51.54 71.93 45.99 71.08 47.39 75.26
  A 0.97 0.97 0.0 0 0 47.95 75.86
  L 51.60 77.39
  A 1.00 1.00 0.0 0 1 52.21 78.31
  L 52.21 85.67
  A 1.01 1.01 0.0 0 1 51.03 86.66
  Q 31.63 83.29 25.14 66.77
  C 20.23 54.29 23.05 41.57 32.28 32.01
  A 1.00 1.00 0.0 0 0 32.56 31.34
  C 32.68 26.90 29.16 28.64 27.54 30.49
  C 6.09 55.09 23.08 91.34 55.74 91.50
  A 1.01 1.00 0.0 0 0 56.75 90.50
  L 56.75 81.81
  A 1.01 1.00 -17.2 0 1 57.19 80.98
  C 59.08 79.69 62.65 79.75 60.88 76.14
  A 1.01 1.00 85.6 0 0 60.28 75.62
  L 59.22 75.29
  Z
  M 81.28 30.48
  C 79.59 28.61 76.83 27.42 76.47 31.28
  A 1.01 1.01 0.0 0 0 76.74 32.06
  C 92.99 49.12 88.02 74.70 66.79 84.63
  A 0.99 0.97 -86.6 0 0 66.34 85.04
  C 64.15 88.93 68.06 89.32 70.43 88.12
  C 92.53 76.96 97.88 48.81 81.28 30.48
  Z"
/>
<path fill="#e09c16" d="
  M 59.22 75.29
  L 60.28 75.62
  A 1.01 1.00 85.6 0 1 60.88 76.14
  C 62.65 79.75 59.08 79.69 57.19 80.98
  A 1.01 1.00 -17.2 0 0 56.75 81.81
  L 56.75 90.50
  A 1.01 1.00 -0.0 0 1 55.74 91.50
  C 23.08 91.34 6.09 55.09 27.54 30.49
  C 29.16 28.64 32.68 26.90 32.56 31.34
  A 1.00 1.00 0.0 0 1 32.28 32.01
  C 23.05 41.57 20.23 54.29 25.14 66.77
  Q 31.63 83.29 51.03 86.66
  A 1.01 1.01 0.0 0 0 52.21 85.67
  L 52.21 78.31
  A 1.00 1.00 0.0 0 0 51.60 77.39
  L 47.95 75.86
  A 0.97 0.97 0.0 0 1 47.39 75.26
  C 45.99 71.08 51.54 71.93 50.59 70.66
  A 0.99 0.97 -13.4 0 0 49.94 70.27
  Q 45.56 69.57 48.06 65.65
  A 0.99 0.98 -78.2 0 1 48.74 65.20
  Q 55.73 64.04 47.63 62.57
  A 1.01 1.00 7.9 0 1 46.81 61.50
  C 47.42 54.35 46.73 47.93 43.00 42.03
  C 38.16 34.37 39.09 25.47 46.66 20.68
  C 59.02 12.87 74.20 25.83 67.49 39.59
  C 65.04 44.60 63.13 47.88 62.05 54.32
  A 0.98 0.96 -14.5 0 1 61.67 54.95
  C 58.79 57.15 57.48 54.75 57.87 52.13
  Q 58.94 45.01 62.60 38.93
  Q 64.33 36.05 64.52 34.10
  C 65.90 19.95 44.15 19.68 44.43 33.11
  C 44.51 37.32 47.96 40.53 49.33 44.53
  Q 51.56 51.07 51.50 58.03
  A 0.99 0.98 10.4 0 0 52.15 58.97
  C 54.56 59.87 64.18 61.70 60.39 65.92
  Q 59.94 66.41 57.76 67.22
  Q 56.20 67.80 57.75 68.42
  Q 58.07 68.54 58.40 68.62
  Q 59.45 68.89 59.89 69.21
  Q 63.25 71.65 59.09 73.82
  Q 57.36 74.72 59.22 75.29
  Z"
/>
<path fill="#e09c16" d="
  M 81.28 30.48
  C 97.88 48.81 92.53 76.96 70.43 88.12
  C 68.06 89.32 64.15 88.93 66.34 85.04
  A 0.99 0.97 -86.6 0 1 66.79 84.63
  C 88.02 74.70 92.99 49.12 76.74 32.06
  A 1.01 1.01 0.0 0 1 76.47 31.28
  C 76.83 27.42 79.59 28.61 81.28 30.48
  Z"
/>
<path fill="#ffffff" d="
  M 108.00 65.31
  L 108.00 108.00
  L 65.19 108.00
  Q 67.58 106.31 66.65 101.22
  A 0.99 0.99 0.0 0 1 67.24 100.12
  L 76.75 96.04
  A 1.00 0.98 -35.0 0 1 77.82 96.22
  L 81.98 100.03
  Q 84.28 102.13 86.69 99.70
  L 99.01 87.26
  Q 101.58 84.66 99.00 82.02
  L 95.60 78.55
  A 0.99 0.98 -55.7 0 1 95.40 77.47
  L 99.18 68.52
  A 0.99 0.97 5.4 0 1 99.91 67.93
  Q 101.34 67.65 102.76 67.68
  C 105.30 67.74 106.60 67.22 108.00 65.31
  Z"
/>
</svg>
